name C:\Users\antoi\Documents\MyRepositories\upper-imu-dc\Results\main_tracking\Case_76\kinematics.mot
datacolumns 10
datarows 23
range 0.50000000 0.72000000
endheader 
time	clav_prot	clav_elev	scapula_abduction	scapula_elevation	scapula_upward_rot	scapula_winging	plane_elv	shoulder_elv	axial_rot	
          0.50000000	        -23.89569319	         -6.34182662	        -15.18263194	         -5.22315936	         11.22512930	          6.58083028	        -30.93548628	         13.19149946	         46.59413981	
          0.51000000	        -23.89385667	         -6.37965429	        -15.29441868	         -5.23556270	         11.19581852	          6.59783389	        -30.14616651	         13.25300141	         45.96804149	
          0.52000000	        -23.89071999	         -6.40599935	        -15.29919440	         -5.24804921	         11.16691989	          6.61473570	        -29.35607368	         13.31486103	         45.34174426	
          0.53000000	        -23.88752508	         -6.43257167	        -15.30387295	         -5.26068338	         11.13792619	          6.63175793	        -28.56407756	         13.37635883	         44.71472925	
          0.54000000	        -23.88425232	         -6.45944293	        -15.30836324	         -5.27353937	         11.10891158	          6.64891060	        -27.76856765	         13.43745974	         44.08638236	
          0.55000000	        -23.88089801	         -6.48663859	        -15.31253795	         -5.28669209	         11.08008318	          6.66615479	        -26.96758553	         13.49832376	         43.45591606	
          0.56000000	        -23.87745219	         -6.51418541	        -15.31623334	         -5.30022950	         11.05169433	          6.68344130	        -26.15887729	         13.55921895	         42.82228638	
          0.57000000	        -23.87388815	         -6.54212118	        -15.31925076	         -5.31424900	         11.02400545	          6.70072358	        -25.33993982	         13.62051135	         42.18409901	
          0.58000000	        -23.87015612	         -6.57049493	        -15.32135548	         -5.32885272	         10.99726705	          6.71796186	        -24.50805396	         13.68268195	         41.53950722	
          0.59000000	        -23.86617822	         -6.59936104	        -15.32227449	         -5.34414001	         10.97171016	          6.73512309	        -23.66031815	         13.74634605	         40.88612623	
          0.60000000	        -23.86184425	         -6.62877215	        -15.32169432	         -5.36020004	         10.94754020	          6.75217955	        -22.79369070	         13.81226486	         40.22098469	
          0.61000000	        -23.85700981	         -6.65877335	        -15.31926052	         -5.37710652	         10.92493443	          6.76910718	        -21.90504510	         13.88134632	         39.54052967	
          0.62000000	        -23.85149711	         -6.68939631	        -15.31457911	         -5.39491363	         10.90404385	          6.78588270	        -20.99124033	         13.95463335	         38.84069708	
          0.63000000	        -23.84509709	         -6.72065379	        -15.30721801	         -5.41365357	         10.88499943	          6.80247990	        -20.04920396	         14.03328091	         38.11705112	
          0.64000000	        -23.83757196	         -6.75253429	        -15.29670714	         -5.43333510	         10.86792163	          6.81886512	        -19.07602287	         14.11852225	         37.36498267	
          0.65000000	        -23.82865857	         -6.78499882	        -15.28253860	         -5.45394420	         10.85293154	          6.83499318	        -18.06903300	         14.21162906	         36.57993924	
          0.66000000	        -23.81807296	         -6.81798209	        -15.26416916	         -5.47544767	         10.84015990	          6.85080549	        -17.02589942	         14.31387306	         35.75765095	
          0.67000000	        -23.80551516	         -6.85139659	        -15.24102466	         -5.49779791	         10.82975208	          6.86623022	        -15.94468067	         14.42649232	         34.89432761	
          0.68000000	        -23.79067388	         -6.88513880	        -15.21250656	         -5.52093801	         10.82186798	          6.88118453	        -14.82387646	         14.55066350	         33.98681945	
          0.69000000	        -23.77323080	         -6.91909700	        -15.17800012	         -5.54480684	         10.81667750	          6.89557847	        -13.66246076	         14.68747935	         33.03274662	
          0.70000000	        -23.75286415	         -6.95315925	        -15.13688275	         -5.56934342	         10.81435285	          6.90931967	        -12.45990087	         14.83792982	         32.03060401	
          0.71000000	        -23.72925101	         -6.98722097	        -15.08853187	         -5.59449022	         10.81505851	          6.92231846	        -11.21616223	         15.00288681	         30.97984095	
          0.72000000	        -23.70206831	         -7.02119104	        -15.03233163	         -5.62019488	         10.81893951	          6.93449273	         -9.93169771	         15.18309262	         29.88090732	
